<?xml version="1.0" encoding="UTF-8"?>
<svg id="Vrstva_1" xmlns="http://www.w3.org/2000/svg" version="1.1" viewBox="0 0 613.97 189.3">
  <!-- Generator: Adobe Illustrator 30.5.1, SVG Export Plug-In . SVG Version: 2.1.4 Build 3)  -->
  <defs>
    <style>
      .st0 {
        fill: #CF364C;
      }
    </style>
  </defs>
  <g>
    <path class="st0" d="M266.43,72.89c-10.18-4.26-22.93,3.78-29,18.31-2.51,6.01-3.5,12.32-2.86,17.96-2.22,2.05-6.13,4.66-12.33,5.77l-.11.02c-2.39.48-3.44.25-3.74.15-.5-1.21.22-5.47,1.84-9.05.63-1.25,6-11.95,8.26-19.56,1.51-5.09.21-9.72-3.49-12.39-4.45-3.21-11.34-2.64-17.16,1.41-1.67,1.16-3.83,2.94-6.16,4.98l1.65-4.44-10.33-3.84-13.39,36.02c-12.8,6.31-23.82,8.94-32.32,7.74.49-.25.98-.52,1.48-.8,5.57-3.18,10.29-8.29,14.1-13.61h11.16v-11.02h-4.5c2.8-5.44,4.34-9.63,4.49-10.04l1.76-4.86-12.42-5.44-28.57,1.28.49,11.01,26.01-1.16.39.17c-1.22,2.66-2.84,5.84-4.77,9.04h-19.13v11.02h10.71c-1.65,1.61-3.38,3.01-5.19,4.04-3.49,2-6.51,2.76-8.5,2.14-1.7-.52-2.45-2.01-2.48-2.07l.05.12-5.08,2.15-5.17,1.92c.16.43,4.01,10.48,16.15,15.12,4.04,1.54,8.46,2.32,13.25,2.32,6.84,0,14.44-1.58,22.75-4.72l-10.2,27.43,10.33,3.84,18.62-50.08c5.02-4.97,16.27-15.83,21.12-19.21,1.64-1.14,3.05-1.48,3.87-1.51-.02.09-.05.2-.08.31-2.07,6.96-7.52,17.7-7.57,17.81l-.09.18c-1.04,2.24-5.95,13.75-.51,20.66,1.64,2.08,4.61,4.26,9.87,4.26,1.37,0,2.9-.15,4.61-.49,6.23-1.12,10.95-3.42,14.41-5.83,1.64,2.13,3.71,3.77,6.11,4.77,1.84.77,3.77,1.14,5.72,1.14,8.85,0,18.3-7.55,23.28-19.45h0c6.08-14.53,2.86-29.25-7.33-33.51ZM263.59,102.15c-3.77,9.01-10.8,13.98-14.58,12.4-1-.42-1.84-1.36-2.46-2.69,0,0,0-.01,0-.02h-.03c-.4-.88-.71-1.91-.91-3.08-.65-3.9.07-8.75,1.98-13.3,3.3-7.9,9.12-12.69,13.04-12.69.55,0,1.07.1,1.54.29,3.77,1.58,5.18,10.08,1.41,19.09Z"/>
    <path class="st0" d="M549.6,61.91l.54-11.01c-18.07-.89-33.27,7.46-33.91,7.82l5.35,9.64c.13-.07,13.17-7.17,28.01-6.44Z"/>
    <path class="st0" d="M399.34,58.48l-5.35-9.64c-.13.07-13.17,7.17-28.01,6.44l-.54,11.01c18.07.89,33.27-7.46,33.91-7.82Z"/>
    <path class="st0" d="M586.49,69.81c.52.16,1.04.29,1.57.39,10.33,1.92,23.29-7.12,25.9-9.04l-6.53-8.88c-8.16,5.98-15.38,7.71-17.69,7-5.44-1.68-7.69-8.73-7.71-8.8l-10.56,3.17c.15.52,3.9,12.73,15.02,16.16Z"/>
    <path class="st0" d="M150.74,0c-15.28,18.91-27.73,43.61-38.72,65.4-6.91,13.71-12.88,25.55-18.37,33.63-2.21,3.26-4.45,6.17-6.66,8.78,2.44-4.69,4.89-9.6,7.08-14.39,8.77-19.22,11.19-33.62,8.36-49.68-1.58-8.97-9.7-28.32-29.07-37.34C54.43-2.39,27.24.61,26.1.74l1.26,10.95c.25-.03,25.28-2.77,41.34,4.71,15.82,7.36,21.87,23.62,22.86,29.26,2.44,13.84.33,25.95-7.53,43.19-.29.64-.59,1.29-.9,1.94,2.51-7.76,4.27-15.38,4.69-21.91,1.39-21.51-7.7-37.02-26.27-44.84-19.07-8.03-50.45,1.85-51.78,2.27l3.36,10.5c7.97-2.54,31.44-7.96,44.14-2.61,14.24,6,20.64,17.11,19.55,33.97-.25,3.91-1.07,8.31-2.29,12.94.53-18.13-5.62-31.02-14.74-37.13C39.51,30.4,3.98,49.18,0,51.37l5.3,9.66c.09-.05,8.62-4.7,19.21-7.92,9.13-2.78,21.6-5.03,29.15.03,9.78,6.55,17.44,32.23-3.67,73.24l-2.47,4.8,4.75,2.57c6.9,3.74,8.18,4.39,8.41,4.5l2.06,1,2.16-.76c.82-.29,20.25-7.31,37.87-33.27,5.89-8.67,12.01-20.81,19.09-34.86,10.74-21.3,22.91-45.45,37.45-63.44l-8.57-6.93Z"/>
    <path class="st0" d="M581.53,79.79l1.31-3.66-10.37-3.73-11.35,31.64c-3.6,4.81-12.15,13.76-20.17,12.5-.9-.14-1.12-.43-1.34-.83-1.38-2.48-1.02-11.81,4.13-23.94,0,0,0-.01,0-.02l-10.14-4.31s-.02.04-.03.06c-3.07,7.22-7.93,15.24-12.69,20.94-5.84,7-9.32,7.96-9.85,7.82-.3-.08-.74-.21-1.11-1.35-1.41-4.46,1.55-14.62,9.79-24.67,10.39-12.66,28.62-6.69,29.39-6.43l1.78-5.22,1.8-5.21c-.26-.09-6.55-2.26-14.67-2.19-11.15.08-20.43,4.24-26.83,12.05-6.79,8.28-11.1,17.26-12.28,25.01-2.95,2.38-9.3,6.87-15.36,6.99h-.1c-1.83.07-3.18-.44-4.38-1.65-3.37-3.38-4.73-11.22-4.96-17.05,8.87-2.64,18.22-9.08,24.91-23.11l-9.95-4.75c-4.85,10.17-11.83,16.2-20.75,17.97l14.8-39.53-10.32-3.86-16.24,43.38c-2.72-.5-4.45-1.15-4.48-1.17l-4.06,10.25c.08.03,1.82.69,4.64,1.32l-2.99,7.98-.07-.09c-6.24,5.31-15.13,10.49-19.51,10.16-.96-.26-1.55-.62-1.77-1.08-.72-1.53.28-5.15,1.23-7.04l.18-.39c.05-.13,5.29-12.61,6.88-16.19,5.76-12.96-.46-17.07-2.5-18.03-5.99-2.79-11.52,1.08-18.53,5.98-1.35.95-3.13,2.39-5.11,4.08l2.76-7.42-10.33-3.84-12.9,34.72c-10.41,8.32-17.3,9.24-18.71,9.34h.01s-.34,0-.34,0c-.28-.03-1.65-.23-2.38-1.12-.69-.83-.92-2.43-.67-4.51,1.07-8.71,9.36-26.32,12.47-32.37l-9.81-5.03c-.48.94-11.61,22.72-13.49,35.3-4.5,4.03-11.69,8.69-15.14,8.03-1.1-.21-1.33-.57-1.41-.69-.52-.82-.48-2.62-.25-3.69l4.51-12.16c3.77-8.59,2.31-13.5,1.51-15.21-2.33-4.95-7.68-6.55-11.6-6.42h-11.36c-5.08-6.25-14.8-6.32-15.83-6.31h-19.96v11.02h3.6l-14.7,41.31,10.39,3.69,16.02-45.01h4.7c2.37-.03,6.17.78,7.29,2.29.61.82.34,2.34,0,3.46-3.79,12.78-11.47,35.41-11.54,35.64l10.44,3.54c.08-.23,7.82-23.06,11.67-36.04.27-.9.46-1.76.59-2.57h8.79-.05s.2,0,.2,0c.42-.01.98.1,1.32.22.01,1.26-.71,4-1.62,6.08l-4.81,12.95-.15.48c-.2.73-1.83,7.26,1.5,12.58,1.3,2.09,3.87,4.76,8.69,5.68.88.17,1.77.24,2.66.24,5.94,0,12.12-3.42,16.66-6.68.35.54.72,1.02,1.08,1.44,3.81,4.4,9.2,4.84,10.27,4.88.11,0,.27,0,.46,0,1.66,0,6.24-.35,12.93-3.5l10.15,3.77,7.66-20.62c2.25-2.5,14.96-14.9,20.15-18.54,1.71-1.2,3.8-2.66,5.49-3.67-.21.65-.49,1.4-.85,2.22-1.55,3.49-6.23,14.65-6.9,16.23-.82,1.67-4.45,9.75-1.33,16.49,1.19,2.58,3.82,5.93,9.57,7.27l.54.1c.65.08,1.31.12,1.97.12,4.17,0,8.63-1.56,12.72-3.62l-.06.17,10.32,3.86,9.91-26.46c.57,6.48,2.39,15.68,7.95,21.27,3.21,3.23,7.31,4.92,11.91,4.92.22,0,.44,0,.66-.01,6.3-.13,12.2-2.82,16.64-5.57,1.63,3.08,4.25,5.25,7.6,6.19,6.98,1.95,14.17-3.14,20.31-10.22.33,1.58.85,3.06,1.59,4.39,1.95,3.52,5.16,5.73,9.27,6.37,1.11.17,2.21.26,3.28.26,4.71,0,9.09-1.57,12.94-3.8l9.09,3.27,6.44-17.95c.08-.12.15-.21.17-.25l-.07-.04,3.76-10.48c1.3-2.34,7.85-12.03,26.13-9.68l1.38-10.79c-8.67-1.11-15.5-.11-20.83,1.85Z"/>
  </g>
  <g>
    <path class="st0" d="M292.15,154.81c-1.39-.71-3.16-1.06-5.29-1.06h-9.58v27.05h4.25v-10.82h5.33c2.16,0,3.94-.37,5.33-1.1,1.39-.73,2.42-1.72,3.09-2.96s1-2.58,1-4.02c0-1.57-.34-2.97-1.02-4.19-.68-1.22-1.72-2.19-3.11-2.9ZM290.72,165.26c-.82.83-2.19,1.24-4.1,1.24h-5.1v-9.28h5.1c1.91,0,3.27.41,4.1,1.24s1.24,1.97,1.24,3.44-.41,2.54-1.24,3.36Z"/>
    <path class="st0" d="M312.17,170.98c-.59-.39-1.24-.69-1.93-.91-.7-.22-1.38-.37-2.05-.45-.28-.05-.62-.11-1.02-.17-.4-.06-.79-.13-1.16-.19-.37-.06-.7-.12-.99-.17-1.88-.33-2.82-1.09-2.82-2.28,0-.64.31-1.19.93-1.62s1.46-.66,2.51-.66,1.87.22,2.59.66,1.12,1.12,1.2,2.05h4.17c-.21-2.01-1.01-3.52-2.41-4.54-1.41-1.02-3.25-1.53-5.55-1.53s-4.11.57-5.37,1.72c-1.26,1.15-1.89,2.56-1.89,4.23,0,1.16.27,2.12.81,2.88.54.76,1.24,1.36,2.11,1.8.86.44,1.78.75,2.76.93.44.1.95.2,1.55.29s1.11.17,1.55.25c1.13.18,1.91.42,2.34.73.43.31.64.76.64,1.35,0,.72-.33,1.33-.99,1.82-.66.49-1.59.73-2.8.73s-2.27-.28-3.09-.85c-.83-.57-1.33-1.33-1.51-2.28h-4.37c.23,2.06,1.15,3.66,2.76,4.79,1.61,1.13,3.63,1.7,6.05,1.7,1.67,0,3.1-.27,4.29-.81,1.18-.54,2.09-1.28,2.72-2.22.63-.94.95-2.03.95-3.27,0-.98-.18-1.79-.54-2.43-.36-.64-.84-1.16-1.43-1.55Z"/>
    <path class="st0" d="M331.85,164.63c-.55-.93-1.28-1.7-2.2-2.28-1.24-.79-2.63-1.18-4.17-1.18-1.91,0-3.55.43-4.93,1.29-1.38.86-2.45,2.05-3.21,3.55-.76,1.51-1.14,3.23-1.14,5.16s.38,3.63,1.14,5.16c.76,1.53,1.83,2.74,3.21,3.61,1.38.88,3.02,1.31,4.93,1.31,1.13,0,2.14-.21,3.03-.64.89-.42,1.65-.97,2.28-1.64.42-.45.76-.9,1.06-1.36v3.18h4.14v-19.17h-4.14v3ZM331.03,174.66c-.49.95-1.15,1.68-1.99,2.16-.84.49-1.77.73-2.8.73-1.6,0-2.94-.55-4.04-1.66-1.1-1.11-1.64-2.68-1.64-4.71s.55-3.56,1.64-4.66c1.09-1.1,2.44-1.64,4.04-1.64,1.03,0,1.96.24,2.8.73.84.49,1.5,1.21,1.99,2.15.49.94.73,2.09.73,3.46s-.25,2.49-.73,3.44Z"/>
    <polygon class="st0" points="332.62 151.97 328.44 151.97 324.85 159.31 327.9 159.31 332.62 151.97"/>
    <path class="st0" d="M350.51,161.17c-1.42,0-2.68.32-3.79.95-1.11.63-1.98,1.49-2.63,2.57v-3.05h-4.25v19.17h4.25v-9.89c0-1.96.49-3.46,1.47-4.52s2.22-1.58,3.71-1.58,2.61.46,3.34,1.37c.73.92,1.1,2.28,1.1,4.08v10.55h4.25v-10.98c0-2.86-.66-5.02-1.97-6.47-1.31-1.46-3.14-2.18-5.49-2.18Z"/>
    <path class="st0" d="M376.19,162.42c-1.51-.84-3.23-1.26-5.16-1.26s-3.59.42-5.12,1.26-2.74,2.01-3.63,3.52c-.89,1.51-1.33,3.27-1.33,5.28s.44,3.74,1.33,5.26c.89,1.52,2.09,2.7,3.61,3.54,1.52.84,3.23,1.26,5.14,1.26s3.62-.42,5.14-1.26c1.52-.84,2.72-2.02,3.61-3.54.89-1.52,1.33-3.27,1.33-5.26s-.44-3.77-1.33-5.28c-.89-1.51-2.09-2.68-3.59-3.52ZM375.94,174.75c-.52.94-1.2,1.65-2.07,2.13s-1.82.71-2.88.71-1.94-.24-2.8-.71-1.55-1.19-2.07-2.13c-.52-.94-.77-2.12-.77-3.54s.26-2.6.77-3.54c.51-.94,1.21-1.65,2.09-2.12s1.83-.71,2.86-.71,1.94.24,2.8.71,1.55,1.19,2.07,2.12c.52.94.77,2.12.77,3.54s-.26,2.6-.77,3.54Z"/>
    <rect class="st0" x="396" y="161.63" width="4.25" height="19.17"/>
    <rect class="st0" x="395.89" y="153.63" width="4.52" height="4.6"/>
    <polygon class="st0" points="424.79 176.74 419.54 161.63 415.09 161.63 422.24 180.8 427.31 180.8 434.46 161.63 430.01 161.63 424.79 176.74"/>
    <path class="st0" d="M446.17,175.7l-5.76-14.07h-4.64l8.09,18.97-1.33,2.86c-.28.72-.55,1.25-.79,1.58-.25.33-.49.55-.73.66s-.56.16-.95.16h-3.98v3.44h5.64c.62,0,1.13-.05,1.55-.15.41-.1.77-.31,1.06-.62.3-.31.61-.76.93-1.35.32-.59.7-1.39,1.14-2.4l10.32-23.15h-4.48l-6.07,14.07Z"/>
    <path class="st0" d="M474.42,162.48c-1.42-.88-3.05-1.31-4.91-1.31-1.65,0-3.01.34-4.1,1.02-1.08.68-1.93,1.48-2.55,2.38v-2.94h-4.25v27.67h4.25v-11.36c.67,1.03,1.57,1.84,2.71,2.44,1.13.59,2.45.89,3.94.89,1.85,0,3.49-.43,4.91-1.29s2.53-2.05,3.34-3.58c.81-1.52,1.22-3.23,1.22-5.14s-.41-3.66-1.22-5.18-1.93-2.72-3.34-3.59ZM473.9,174.52c-.5.94-1.2,1.68-2.09,2.22-.89.54-1.91.81-3.07.81s-2.18-.27-3.07-.81c-.89-.54-1.58-1.28-2.09-2.22-.5-.94-.75-2.04-.75-3.3s.25-2.37.75-3.32c.5-.95,1.2-1.69,2.09-2.22.89-.53,1.91-.79,3.07-.79s2.18.26,3.07.79c.89.53,1.58,1.28,2.09,2.24.5.97.75,2.08.75,3.34s-.25,2.32-.75,3.27Z"/>
    <path class="st0" d="M488.02,162.31c-.77.55-1.39,1.32-1.86,2.3v-2.98h-4.25v19.17h4.25v-8.73c0-1.54.16-2.82.48-3.83.32-1,.79-1.74,1.41-2.22.62-.48,1.37-.71,2.24-.71h3.09v-3.83h-2.67c-1.03,0-1.93.28-2.71.83Z"/>
    <polygon class="st0" points="511.44 151.97 507.27 151.97 503.68 159.31 506.73 159.31 511.44 151.97"/>
    <path class="st0" d="M510.67,164.63c-.55-.93-1.28-1.7-2.2-2.28-1.24-.79-2.63-1.18-4.17-1.18-1.91,0-3.55.43-4.93,1.29-1.38.86-2.45,2.05-3.21,3.55-.76,1.51-1.14,3.23-1.14,5.16s.38,3.63,1.14,5.16c.76,1.53,1.83,2.74,3.21,3.61,1.38.88,3.02,1.31,4.93,1.31,1.13,0,2.14-.21,3.03-.64.89-.42,1.65-.97,2.28-1.64.42-.45.76-.9,1.06-1.36v3.18h4.14v-19.17h-4.14v3ZM509.86,174.66c-.49.95-1.15,1.68-1.99,2.16-.84.49-1.77.73-2.8.73-1.6,0-2.94-.55-4.04-1.66-1.1-1.11-1.64-2.68-1.64-4.71s.55-3.56,1.64-4.66c1.09-1.1,2.44-1.64,4.04-1.64,1.03,0,1.96.24,2.8.73.84.49,1.5,1.21,1.99,2.15.49.94.73,2.09.73,3.46s-.25,2.49-.73,3.44Z"/>
    <polygon class="st0" points="527.44 176.74 522.19 161.63 517.74 161.63 524.89 180.8 529.96 180.8 537.11 161.63 532.66 161.63 527.44 176.74"/>
    <polygon class="st0" points="552.99 156.61 552.99 153.13 547.5 156.41 541.98 153.13 541.98 156.61 547.5 159.7 552.99 156.61"/>
    <path class="st0" d="M552.39,162.4c-1.4-.82-3.05-1.24-4.93-1.24s-3.63.43-5.1,1.28-2.62,2.04-3.44,3.57c-.83,1.53-1.24,3.29-1.24,5.28s.42,3.72,1.26,5.22c.84,1.49,1.98,2.66,3.44,3.5,1.46.84,3.14,1.26,5.04,1.26,1.55,0,2.92-.28,4.12-.83,1.2-.55,2.2-1.31,3.01-2.28.81-.97,1.38-2.05,1.72-3.27h-4.29c-.36.88-.93,1.57-1.7,2.09-.77.52-1.73.77-2.86.77-1,0-1.93-.23-2.76-.7-.84-.46-1.51-1.15-2.03-2.07-.44-.78-.68-1.71-.74-2.76h14.85c.05-.36.08-.69.08-.98v-.83c0-1.72-.39-3.29-1.16-4.68-.77-1.39-1.86-2.5-3.27-3.32ZM541.95,169.36c.11-.79.33-1.49.68-2.07.52-.86,1.2-1.52,2.05-1.97s1.78-.68,2.78-.68c1.39,0,2.57.42,3.54,1.28.97.85,1.49,2,1.56,3.44h-10.61Z"/>
    <path class="st0" d="M570.77,161.17c-1.42,0-2.68.32-3.79.95-1.11.63-1.98,1.49-2.63,2.57v-3.05h-4.25v19.17h4.25v-9.89c0-1.96.49-3.46,1.47-4.52s2.22-1.58,3.71-1.58,2.61.46,3.34,1.37c.73.92,1.1,2.28,1.1,4.08v10.55h4.25v-10.98c0-2.86-.66-5.02-1.97-6.47-1.31-1.46-3.14-2.18-5.49-2.18Z"/>
    <path class="st0" d="M600.04,165.94c-.89-1.51-2.09-2.68-3.59-3.52-1.51-.84-3.23-1.26-5.16-1.26s-3.59.42-5.12,1.26-2.74,2.01-3.63,3.52c-.89,1.51-1.33,3.27-1.33,5.28s.44,3.74,1.33,5.26c.89,1.52,2.09,2.7,3.61,3.54,1.52.84,3.23,1.26,5.14,1.26s3.62-.42,5.14-1.26c1.52-.84,2.72-2.02,3.61-3.54.89-1.52,1.33-3.27,1.33-5.26s-.44-3.77-1.33-5.28ZM596.2,174.75c-.52.94-1.2,1.65-2.07,2.13s-1.82.71-2.88.71-1.94-.24-2.8-.71-1.55-1.19-2.07-2.13c-.52-.94-.77-2.12-.77-3.54s.26-2.6.77-3.54c.51-.94,1.21-1.65,2.09-2.12s1.83-.71,2.86-.71,1.94.24,2.8.71,1.55,1.19,2.07,2.12c.52.94.77,2.12.77,3.54s-.26,2.6-.77,3.54Z"/>
  </g>
</svg>