<?xml version="1.0" encoding="UTF-8"?>
<svg id="Vrstva_1" xmlns="http://www.w3.org/2000/svg" version="1.1" viewBox="0 0 499.72 436.8">
  <!-- Generator: Adobe Illustrator 30.5.1, SVG Export Plug-In . SVG Version: 2.1.4 Build 3)  -->
  <defs>
    <style>
      .st0 {
        fill: #CF364C;
      }
    </style>
  </defs>
  <path class="st0" d="M472.83,0c-47.92,59.3-86.99,136.79-121.46,205.16-21.68,43.01-40.41,80.15-57.62,105.5-6.93,10.21-13.96,19.35-20.91,27.54,7.67-14.71,15.34-30.12,22.19-45.15,27.51-60.3,35.1-105.45,26.21-155.83-4.97-28.14-30.41-88.83-91.18-117.11C170.75-7.51,85.46,1.9,81.85,2.31l3.94,34.35c.79-.09,79.28-8.68,129.68,14.79,49.62,23.1,68.6,74.08,71.72,91.78,7.66,43.43,1.04,81.41-23.62,135.47-.92,2.02-1.86,4.05-2.82,6.09,7.87-24.36,13.4-48.24,14.72-68.71,4.35-67.49-24.14-116.12-82.41-140.66-59.82-25.19-158.26,5.8-162.42,7.13l10.53,32.93c25-7.97,98.61-24.98,138.47-8.2,44.68,18.81,64.73,53.67,61.32,106.56-.79,12.26-3.37,26.08-7.19,40.58,1.67-56.87-17.63-97.3-46.24-116.46C123.93,95.37,12.5,154.28,0,161.14l16.63,30.31c.27-.15,27.03-14.74,60.24-24.84,28.64-8.71,67.75-15.76,91.42.09,30.69,20.55,54.71,101.1-11.5,229.73l-7.75,15.05,14.89,8.06c21.65,11.73,25.66,13.77,26.37,14.11l6.47,3.14,6.79-2.38c2.57-.9,63.52-22.94,118.79-104.34,18.47-27.2,37.67-65.28,59.89-109.36,33.69-66.82,71.88-142.56,117.48-198.99L472.83,0Z"/>
</svg>